<svg version="1" xmlns="http://www.w3.org/2000/svg" width="682.667" height="682.667" viewBox="0 0 512.000000 512.000000"><path d="M0 256v256h512V0H0v256zm333-98.7c8 3.2 10.3 7.1 9.7 16-.2 3.8-.8 7.2-1.3 7.7-.5.4-4.3.2-8.4-.7-20.4-4-33.1 2.3-38.3 19.2-6.2 19.9-7.5 87.2-2.1 109 1.9 7.8 6 14.3 10.4 16.6 4.6 2.5 15.3 2.5 25.1 0 14.1-3.5 12.7-3.6 13.8.6 3.4 12-1.3 20-14.6 25.2-21.4 8.4-43.4 1.4-53.2-16.9-8.5-15.9-14.2-64.2-11.2-94.5 2.6-26.2 10-53.6 17.2-64.4 2.2-3.3 5.9-7.7 8.2-9.7 5.2-4.5 15-9.3 21.4-10.4 6.8-1.2 16.9-.2 23.3 2.3zm90.3-.3c9.1 3.4 12.6 8.7 11.3 17.4-1.1 7.4-2 7.9-9.6 6.2-7.4-1.8-17-2-21.9-.6-16.1 4.6-20.8 21.1-21.8 78-.9 48.2 1.5 60.7 12.9 66.6 6.6 3.4 21.9 2.3 36.2-2.6 3.1-1 5.6-1.7 5.6-1.5 0 2.7-4.7 19.8-6.1 22.1-4.1 6.9-15.1 11.6-27 11.6-22.4 0-37.3-12.2-42.9-35.1-3.5-14.2-5.4-36-5.4-62.1 0-21.2.3-26.2 2.3-37.3 3-17 9-35.7 13.9-43.3 12.1-18.7 33.3-26.6 52.5-19.4zm-296.2 2.1c8.4 1.7 17.1 6.3 21.8 11.5 8.7 9.3 12.1 21.3 12.1 42.7 0 21.9-4 35.1-14.1 46.1l-5 5.5 7.6 24.1c9.1 28.5 13.4 45.4 13.8 53.3.3 7.9-1.1 8.9-11.7 8.5l-7.9-.3-9.3-26c-5.1-14.3-11.4-31.5-14-38.3-5.1-13.3-4.5-12.7-13.6-13.5l-4.6-.4-.8 9.6c-.4 5.3-.4 20.4-.1 33.7.7 26.3.2 30-4.1 33.5-2.4 1.8-3.6 2.1-10 1.7-4-.3-7.6-.8-8-1.2-.4-.4-.8-41.1-1-90.5-.3-98.8-.5-95.6 5.7-99.8 3.4-2.3 3.9-2.4 20.7-1.8 9.5.2 19.6 1 22.5 1.6zm124.4-.1c1.5 5.3 1.5 9 .1 12.4-2.5 5.9-5.4 6.6-27.6 6.6h-19v56h2.8c12.3.1 36.7 2.2 37.3 3.2 1 1.6 0 9.3-1.7 13.5-1.9 4.8-6.1 6.4-17.8 7-11.9.6-15.5 1.5-18.6 4.8l-2.3 2.5-.2 39.8c-.2 28-.6 40.4-1.4 42-2 3.7-4.7 4.5-13.7 3.7l-8.4-.7-.2-82.6c-.4-107.3-.5-100.1 1.6-104 2.9-5.6 4.5-5.8 38.1-5.8 26.3.1 30.6.3 31 1.6z"/><path d="M106.5 179.8l-4 .7-.3 34.2-.2 34.3 2.6.6c4.5 1.2 15.3-.4 19.7-2.8 8.3-4.6 12.5-19.5 11.1-39.8-1-14.8-4-22.2-10.5-25.5-3.3-1.8-12.7-2.6-18.4-1.7z"/></svg>