<svg xmlns="http://www.w3.org/2000/svg" viewBox="0 0 1159.17 672.86"><defs><style>.cls-1{font-size:15px;font-family:TrajanPro3-Bold, "Trajan Pro 3";font-weight:700;}.cls-2{letter-spacing:0.01em;}.cls-3{letter-spacing:0.01em;}.cls-4{letter-spacing:-0.02em;}.cls-5{letter-spacing:-0.06em;}.cls-6{letter-spacing:-0.04em;}.cls-7{letter-spacing:0.01em;}.cls-8{letter-spacing:0.01em;}.cls-9{letter-spacing:0.01em;}.cls-10{letter-spacing:-0.02em;}.cls-11{letter-spacing:-0.02em;}.cls-12{letter-spacing:0.01em;}.cls-13{letter-spacing:-0.02em;}.cls-14{letter-spacing:0.01em;}.cls-15{letter-spacing:-0.03em;}.cls-16{letter-spacing:-0.01em;}.cls-17{letter-spacing:0em;}.cls-18{letter-spacing:-0.03em;}.cls-19{letter-spacing:-0.03em;}.cls-20{letter-spacing:-0.01em;}</style></defs><title>Asset 1</title><g id="Layer_2" data-name="Layer 2"><g id="Contours"><path d="M938,297.44c1.21,13.72,2.57,27,3.54,40.31.29,4-.67,8.15-.79,12.23-.23,8,.1,8.32,8.48,8.38,13.75.09,27.49.09,41.24.31,6.72.1,13.44.78,20.17.9,3.79.06,7.6-.76,11.4-.69,12.41.23,24.82.87,37.24,1,8.78.09,17.57-.68,26.35-.58,20.27.24,40.54.78,60.8,1.21,3.24.07,4.89,4.41,4.4,8.57-.55,4.73,0,9.57,0,14.36,0,.56.11,1.13.13,1.69.3,8.43.57,16.86.92,25.29.24,6.11.72,12.22.87,18.33.37,15.29.48,30.58,1,45.87.34,10.63,1.28,21.25,1.71,31.89.26,6.41,0,12.85.07,19.27.22,10.89.55,21.79.9,32.68.23,7,.69,14,.87,20.94.37,14.51.58,29,1,43.54q.29,11.64.93,23.27c0,1.07,0,.56-3.66.56-4.57,0-4.89-.13-7.36-.18-15.56-.25-31.12-.22-46.67-.42-3.81,0-7.61-.87-11.41-.85-14.83.07-29.66.51-44.48.47-9.6,0-19.19-.86-28.78-.93-8.84-.07-17.68.49-26.52.58-2.89,0-5.79-.85-8.68-.82-12.12.09-24.22.52-36.33.54-17.12,0-34.24-.18-51.36-.29-11.53-.08-23.06-.23-34.59-.21-28.33.06-56.65.29-85,.27-24.82,0-49.65-.34-74.47-.41-5.31,0-10.63.75-15.94.67-11.1-.17-22.2-.91-33.31-1-12.41-.06-24.82.32-37.23.58-7.33.16-14.66.57-22,.69-6.29.1-12.6-.28-18.88,0-7.32.28-14.6,1.26-21.91,1.45-5,.13-10-.73-15-.84-8.46-.19-16.92-.15-25.38-.2s-16.77.46-25.05-.36a71.14,71.14,0,0,0-17.51.76c-5.85.84-12.09-.64-17.91.28-6.25,1-12.49-2.46-18.59.47-.85.4-2.25-.32-3.4-.36a100.25,100.25,0,0,0-11.62-.19c-9.5.78-18.94,4.07-28.49,1.08-3.69-1.16-6.58-2.16-10.46-.17-2,1-5.31-.48-8-.83a45.88,45.88,0,0,0-6.48-.72c-5.21.1-10.42.7-15.64.65-5.61,0-11.23-.84-16.84-.82-3.55,0-7.08,1-10.63,1.46a6.84,6.84,0,0,1-2.66.07c-11.64-3.39-23.37-1.58-35.13-1.18-9.78.33-19.66,3-29.44-.83-1.48-.57-3.62.65-5.46.68-15.64.25-32.34.39-47.9.42-18.53,0-37.08-.28-55.61-.25-9.85,0-19.67.58-29.52.61-5.28,0-10.6-.84-15.88-.85-6.69,0-13.36.67-20,.63-6.49,0-13-.87-19.49-.86-15.66,0-31.3.3-46.95.56-6.41.11-8.89-1.88-11-7.17-1.3-3.31,0-3.56,2.42-3.32,2.63.27,3.07-.63,3-3-.17-7.45.23-14.9,0-22.35-.2-6.33-1.26-12.68-1.37-19-.08-4.43,1-8.82,1.19-13.25.15-4.11-.22-8.25-.36-12.38-.11-3.35-.28-6.7-.33-10.05q-.33-22.1-.59-44.19c-.11-10.65-.11-21.3-.19-32-.09-12.1-.23-24.21-.32-36.32-.07-10.36-.23-20.73-.11-31.09.1-9,.69-18.05.8-27.09.06-5.86-.28-11.74-.57-17.62-.3-6.08,2.31-6.41,6.73-6.7,4-.27,8.18.69,12.27.76,2.88,0,5.74-.74,8.62-.73,26.9.09,53.82.47,80.71.35,14.33-.06,28.62-1,42.94-1.35,4.67-.1,9.4.85,14.08.83,14.2-.06,39.09,1.18,53.37,1.08,3.46,0,4.85-1.43,4.67-4.64-.35-6.11-.82-12.22-.88-18.34-.13-13.52,0-27,0-40.56V276.08a92.92,92.92,0,0,0-.11-10.56,11.81,11.81,0,0,0-2.48-5.93c-4.37-5.16-9.05-10.07-13.66-15-1.5-1.61-3.24-3-4.72-4.62-6.87-7.44-13.58-15-20.56-22.36-4.37-4.6-9.05-8.93-13.71-13.26-2.77-2.57-2.82-5,.13-7.16q10.78-7.91,21.77-15.55c8.45-5.86,17.1-11.45,25.47-17.41,7.43-5.29,14.43-11.13,21.91-16.34,5.71-4,12-7.25,17.81-11.05,8.27-5.36,16.5-10.78,24.55-16.43,14.6-10.25,29-20.77,43.61-31,6.54-4.58,13.48-8.63,20.07-13.16,8.51-5.85,16.86-11.94,25.27-17.93,6.11-4.36,12.1-8.88,18.38-13a12.7,12.7,0,0,1,6.46-1.64c19.36-.29,38.72-.26,58.08-.61,13.2-.24,26.38-1,39.57-1.43,7.63-.27,15.26-.64,22.89-.67,4.41,0,8.81.74,13.22.84,2.59,0,5.71.25,7.64-1s2.88-4,3.62-6.36c.25-.76-1.27-2.5-2.39-3.16-3.76-2.25-6.12-7-5.2-11.11a7.47,7.47,0,0,0,.48-2.39c-1.41-10.5,6-13.5,14.31-15.88,10.18-2.92,20.56-2,30.55-.27,6,1.06,11.77,5.07,17,8.6,2,1.34,2.7,4.95,3.28,7.67.54,2.5.06,5.19.13,7.8.08,3.06-1.72,4.28-4.47,5.38-1.83.74-4.54,3-4.32,4.16.56,2.76-.11,7,5.23,7.07,7.27.11,14.55.75,21.82.92q12.76.3,25.53.17c6.88-.08,13.75-.64,20.63-.67,13.19,0,26.38,0,39.57.25,13,.23,26,.79,39,1.07,8.51.18,17-.2,25.53.29,7.65.44,15.28,1.62,22.88,2.75a9,9,0,0,1,4.71,2.62c4.73,4.88,8.79,10.47,14,14.86,6,5.1,12.88,9.26,19.43,13.77,10.26,7.06,20.67,13.93,30.81,21.15,8.39,6,16.28,12.6,24.74,18.49,10.06,7,20.72,13.21,30.63,20.39a115.56,115.56,0,0,0,11.5,7.07c4.36,2.45,7.62,6.65,11.66,9.74,7.69,5.88,15.68,11.4,23.39,17.26s15.46,12,23,18.22c.94.78,1.13,3.14.73,4.52-1.46,5-5.79,7.91-9.47,11.3-10.79,9.92-21.42,20-32.32,29.79-3.57,3.2-7.29,6.14-7.91,11.1a65,65,0,0,0-.3,8.5c0,4.07,0,8.15.28,12.21.48,6.87,1.25,13.73,1.75,20.6.2,2.76,0,5.55,0,8.76M232.9,413.26c-.3,5.11-.86,10.21-.84,15.32,0,6.6.77,13.19.78,19.79,0,6.3-.61,12.6-.83,18.91-.36,10.45-.62,20.9-.92,31.36-.31,10.89-.73,21.77-.88,32.66-.38,26.44-.64,52.88-.93,79.32,0,4.2.12,8.41,0,12.61-.14,3.94-.56,7.87-.87,11.8-.21,2.64,1.61,3.69,4.21,3a15.58,15.58,0,0,1,6,0c5.24.77,10.95,3.49,15.54,2.28,8.12-2.16,16-1.18,24-1.23,16.49-.1,33-.36,49.47-.51,5.29-.05,10.58.17,15.86.06,4.31-.1,9-1.68,12.85-.52,9.56,2.86,19,.16,28.4.69,6.44.37,7.72-1.41,7.72-7.67,0-3,.08-6.09,0-9.13-.25-8.33-.75-16.67-.82-25-.05-4.71.82-9.42.78-14.13-.09-8.57-.79-17.15-.8-25.72,0-31.1-.83-62.23,2.61-93.23.75-6.78.31-13.69,1.08-20.47a74.29,74.29,0,0,1,3.53-16.81c3.28-9.19,7.44-18,17.29-22.8,5.63-2.74,10.76-6.52,16.58-8.75,12.43-4.75,25.63-5.1,38.49-2.22,7.2,1.6,14.7,2.83,21.13,7.94,11.19,8.89,15,20.75,16.85,33.39.92,6.29-.51,12.87-.67,19.32-.38,15.09-.71,30.18-.91,45.27-.13,10.19,0,20.38,0,30.57,0,7.15-.12,14.3,0,21.45.14,6.26.74,12.51.83,18.77.15,9.75,0,19.51,0,29.27,0,4-.1,7.92,0,11.88.22,7.27.49,14.55,1,21.81a4.83,4.83,0,0,0,2,3.44,27.05,27.05,0,0,0,7.06,2.48c.61.14,2.31-1.26,2.27-1.88-.32-4.35-1.32-8.67-1.42-13-.22-10.33-.19-20.67,0-31,.18-13,.61-25.94.83-38.91,0-1.61-.9-3.26-.81-4.85.49-8.6,1.33-17.18,1.7-25.79.29-6.65,0-13.33.1-20,.08-3.5.86-7,.81-10.5-.12-8.05-1-16.11-.72-24.13.31-8.2,1.79-16.36,2.55-24.55.5-5.37.09-10.87,1.11-16.12,1-5.09,2.34-10.52,5.2-14.77,4.17-6.18,9.64-11.6,15-17,1.57-1.59,4.44-2.37,6.85-2.76,5.13-.84,10.48-.71,15.52-1.82,11.17-2.47,22.08-1.61,33.05,1.15,11.44,2.88,20.23,9.56,27.5,18.07,8.4,9.81,10.17,21.93,10.8,34,.67,12.91.15,25.88.15,38.82,0,7.59.11,15.17,0,22.75-.11,5.39-.69,10.77-.84,16.15-.38,13-.79,25.93-.87,38.9,0,7.46.73,14.93.78,22.4,0,5.29-.93,10.58-.76,15.86.34,11.12,1.11,22.23,1.74,33.34.21,3.84,3.2,3.33,5.89,3.52,3.2.21,3.21-1.65,3.18-3.84-.06-4.68-.13-9.37,0-14,.18-5.83.65-11.64.86-17.46.36-10.21.84-20.43.86-30.64,0-8.91-.59-17.83-.83-26.74-.35-12.49-.87-25-.85-37.46,0-15,.62-30,.78-45,0-4.51-.91-9.05-.75-13.55.16-4.7,1.22-9.35,1.69-14.05.85-8.51,2.72-16.69,8.25-23.61a32.68,32.68,0,0,1,6.34-6c4.07-2.92,8.12-6.13,12.71-8.06,7.11-3,14.52-5.06,22.69-4.52,5.43.36,11-1.64,16.44-1.31,11.33.7,21.79,3.27,31.41,10.44,14.83,11,19.75,26.12,20.61,42.35,1.18,22,.28,44,.33,66.05,0,1.76.85,3.53.77,5.28-.49,11.64-1.3,23.28-1.63,34.93-.16,5.42.8,10.87.76,16.31-.06,8.33-.82,16.66-.78,25,.09,15.24.51,30.48.93,45.71a3.5,3.5,0,0,0,1.95,2.65,40.75,40.75,0,0,0,9.12,1c12.29-.36,24.57-1.09,36.86-1.34,3.47-.07,4.69-.77,4.63-4.29-.2-13.67-.08-27.34-.08-41V568.45c0-20.77.07-41.54,0-62.3,0-5.87-.87-11.76-.67-17.61,0-1.69,2.4-4.71,3.74-4.73,17.52-.21,35,0,52.56.13,5.49,0,11.07.67,16.45-.05,6.76-.9,10.43,1.48,10.43,8.1,0,7.73-.06,15.45,0,23.18,0,2.2.76,4.4.83,6.6.14,4.25-.09,8.51.06,12.75.55,15,1.35,30.05,1.74,45.08.28,10.91-.06,21.83.09,32.75.1,7.27.5,14.54.94,21.81A3.79,3.79,0,0,0,909,637a21.66,21.66,0,0,0,5.93,1c5.61.4,11.22.88,16.84,1,7.31.11,7.25,1.17,7.14-6q-.51-32.49-.91-65c0-3.38.2-6.78,0-10.14-.44-5.86-1.46-11.69-1.71-17.55-.51-12-.71-24.1-1-36.16-.34-17.12-.61-34.24-.91-51.36,0-.44,0-.87,0-1.31-.6-12.51-1.26-25-1.77-37.54-.2-4.68.13-9.37-.07-14.05-.51-12.23-1.24-24.45-1.76-36.67-.41-9.73-.54-19.47-.94-29.2-.53-12.71-1.24-25.42-1.78-38.13-.38-9-.71-18-.9-27-.14-6.72.08-13.43-.06-20.15-.08-3.65-.59-7.29-.86-10.94-.33-4.52-.86-9-.85-13.56,0-5,1-10,.72-15-.46-7.09-2.36-8.37-9.87-8.42l-43.05-.28c-3.53,0-7.07-.25-10.58,0-10.81.7-21.59,1.84-32.41,2.28-8.89.36-17.82,0-26.73-.09-3.52,0-7.06-.2-10.57,0-9.73.43-19.44,1.09-29.16,1.46-2.58.1-5.18-.73-7.78-.83-18.63-.75-37.27-2.05-55.89-2-31.5.1-63-2.21-94.51,1.64-14.38,1.76-29.08,1.25-43.63,1.64-5.63.15-11.3-.31-16.92,0-11.87.6-23.71,1.71-35.58,2.25-7.13.32-14.3-.12-21.45,0-13.17.13-26.33.46-39.5.54-3.65,0-7.3-.86-10.95-.83-7.63.05-15.26.54-22.89.63-8.36.09-16.72-.18-25.08-.11-13.52.12-27,.63-40.56.52-16.49-.13-33-.91-49.47-1.06-11.2-.11-22.4.35-33.61.59-8.78.2-17.57.6-26.36.62-3.23,0-4.09,1.06-4,4,.21,5.55.06,11.11.06,16.66,0,4-.1,7.93,0,11.88.08,2.06.94,4.14.81,6.17-.78,11.95-2.1,23.88-2.54,35.85-.31,8.26.62,16.56.73,24.85,0,3.93-.79,7.87-.81,11.8-.09,19.47,0,38.93,0,58.39,0,3.67.1,7.35,0,11-.22,6.11-.61,12.21-.87,18.32-.09,1.93,0,3.87,0,6.67M9.47,579.26c0,7.93-.22,15.87-.06,23.8.22,10.92.7,21.84,1.07,32.76.09,2.84.09,5.57,4.41,3.4.94-.48,2.54.25,3.83.36,2.25.19,4.5.36,6.75.47,1.71.07,3.71-.55,5.06.15,3.78,2,7.19,2.44,10.94.36,1.05-.58,2.78-.22,4.19-.07,6.93.76,7.06.32,19.75.32.55-.49,2.14,0,3,.35,7.92,0,4.75-1.54,15.84-1.54.84-.54,2.54.22,3.85.28,4.94.23,10,1,14.8.45,4.54-.48,8.66-1.74,13.49,0,3,1.1,6.8.15,10.24.16,4.44,0,8.88.12,13.32.07,4.72,0,9.44-.14,14.15-.36,2.34-.11,4.64-.7,7-.8,4.44-.19,9,.34,13.32-.42a32.43,32.43,0,0,1,14.31.92c4.14,1.08,9.82.95,14.18.91,2.07,0,4.64-1.83,6.09-1.12,4.25,2.08,8.28,1.35,12.57.88,2.59-.29,3.22-1.13,3.25-3.42q.35-25.46.9-50.91c.05-2.5.77-5,.81-7.46s-.24-5.08-4-5.28c-4.49-.24-5-1.2-3.22-5.14a7.7,7.7,0,0,0,.88-2.67c.65-12.56,3.46-24.93,2-37.68-.74-6.59.47-13.35.71-20,.35-9.73.7-19.46.89-29.19.14-7.14-.08-14.3.05-21.44q.33-17.72.92-35.42a67.44,67.44,0,0,1,.89-7.46c.28-1.94-.17-2.71-2.55-2.68-19.51.27-47.88-1-67.28-.74-10.09.13-20.16.67-30.26.62-9.19,0-18.41-.72-27.61-.94-7.42-.19-14.83-.22-22.24-.14-12.1.14-24.18.5-36.28.62-8.91.08-17.84-.18-26.75,0-1.18,0-3.21,1.53-3.27,2.49-.52,9.35-.88,18.71-1,28.08-.09,11.43.13,22.86.22,34.29.1,11.87.23,23.74.29,35.6,0,9,0,17.91,0,26.87.1,13.27.28,26.54.46,40.69m933.05-127.5a31.55,31.55,0,0,1,.88,4.43c.37,6.3.71,12.61.92,18.92q1,28.62,1.82,57.25c0,1.16-.08,2.32,0,3.47.89,10.52,1.89,21,2.57,31.55.06,1-1.78,2.82-2.88,2.92-3.28.3-4.36,1.78-4.25,4.71.35,9.44.64,18.89.92,28.33q.48,15.9.91,31.81c0,.58-.21,1.27.05,1.71s1,1.29,1.61,1.33c5.36.42,10.72.85,16.09,1,7.3.2,14.61.2,21.9.08.7,0,1.86-1.36,1.95-2.19a99.57,99.57,0,0,0,.93-12.66c-.08-7.61-.58-15.22-.82-22.83-.11-3.24,0-6.48,0-9.71-.28-11.57-.56-23.15-.91-34.72-.24-7.75-.66-15.51-.88-23.26-.36-13.21-.73-26.42-.86-39.64a97.22,97.22,0,0,1,1-15.25c.22-1.46,2.47-3.68,3.89-3.74q24.06-1.11,48.17-1.52c6.57-.11,13.16,1,19.72.84,12.29-.22,24.57-1.2,36.86-1.3,6.39,0,12.79,1.17,19.19,1.73,6,.53,9,3.9,8.88,9.6s-.25,11.41,0,17.1c.4,8.61,1.34,17.2,1.71,25.81.49,11.46.69,22.94.91,34.41,0,1.61-.85,3.24-.81,4.85.19,7.32.73,14.64.81,22,.15,12.22,0,24.44.09,36.66,0,4.08.46,8.18.89,12.25.48,4.54,2.42,3.2,7.1,3.2,7,0,2.84,0,7,0,3.34,0,7.56-.06,11.36,0s5.44-6.69,5.36-10.5c-.4-19.29-.65-38.59-1-57.88,0-.44,0-.87,0-1.31-.29-6.45-.64-12.9-.88-19.35-.11-3,.1-5.9,0-8.84-.55-11.26-1.24-22.52-1.74-33.78-.08-1.75.9-3.54.8-5.28-.48-8.18-1.27-16.33-1.72-24.51s-.67-16.38-.94-24.57q-.5-14.81-.89-29.63c-.1-4-.06-7.92,0-11.89,0-2.81-1.29-4.12-4.26-4.2-12.46-.32-24.92-.93-37.39-1-10.59-.08-21.19.6-31.79.56-38.37-.14-76.73-.45-115.1-.7-4.88,0-9.77,0-14.65-.13-2.42-.07-3.58.58-3.49,3.12.14,4.29-.06,8.6.06,12.9.23,9,.58,18,.88,27.89m134.59-58.67c21.73.14,43.47.24,65.21.47,3.6,0,5.14-1.19,5.07-4.72-.15-6.85.13-13.72-.21-20.56-.06-1.19-2.21-3.21-3.5-3.3-9.06-.62-18.15-.9-27.24-1.14-2,0-4,.79-6,.73-6.87-.2-13.74-.83-20.61-.89-6.07-.05-12.13.7-18.19.63-9.29-.12-18.58-.85-27.86-.95-28.08-.29-56.16-.37-84.23-.63-4.46,0-8.92-.91-13.36-.8-2.69.07-6.12.43-6.39,4.16-.44,6.24-.58,12.5-1,18.75-.31,5.06,1.23,7.18,7.34,7.34q34.68.88,69.36,1.33c6.52.09,13-.65,19.55-.63,5.51,0,11,.85,16.54.85,8.18,0,16.35-.41,25.44-.64m-864.6-27.34c-27.53.4-65.33-.65-92.71-.37-6.78.07-13.6-.84-20.39-.87-7.94,0-15.86.52-23.8.65-6.65.1-13.33-.14-20-.07-13.84.15-27.68.53-41.52.54-4.29,0-5.74,1.48-5.42,5.56C9.14,377,10.11,383,9,388.59c-.9,4.69.43,5.09,4.31,5.09,17.88,0,35.76.09,53.64.32,8.9.12,17.82,1,26.7.89,7.57-.06,15.07-1.18,22.64-1.47,11-.41,22-.68,33-.69,19.68,0,48.9,1.65,68.68,1.73,8.52,0,9.46-1,9.52-9.1,0-5.31-.25-10.69.52-15.91.42-2.89-.12-3.61-2.81-3.62-3.92,0-7.85-.05-12.68-.08M555.09,639.19c4-1.41,7.88-2.61,12.18-.06,1.65,1,4.32.42,6.53.47,1,0,2.2-.54,3-.2,4.55,1.94,8.92,1,12.83-1.1,4.09-2.19,7.41-1.5,11.22.56,1.61.87,4.85,1.23,6,.3,4.72-3.9,9.58-2.22,14.54-1.17.72.16,1.92.5,2.1.24a4.12,4.12,0,0,0,.8-2.59c-.46-4.13-1.5-8.24-1.59-12.37-.22-11.44,0-22.88-.11-34.33,0-2.64.1-5.6-1.11-7.77-.48-.86-4.43.12-6.8.16-15.18.21-30.35.46-45.53.56-10.27.06-20.54-.07-30.81-.2-3.19-.05-4.73,1.24-4.53,4.3.29,4.23.79,8.46.87,12.69.14,7.67,0,15.35.07,23,0,2.19,1.13,4.51.69,6.55-1.53,7,1.94,11.78,9.17,11.71,3.2,0,6.39-.5,10.5-.77m198-38.27c0-4.91-.07-9.84,0-14.75.05-2.79-.58-4.82-4-4.83-4.77,0-9.56,0-14.33-.12-6.52-.23-13-.88-19.54-.91-7.87,0-15.74.65-23.61.59-8.17,0-16.34-.75-24.51-.84-1.4,0-3.76,1.42-4,2.54-.69,2.91-1.32,6.31-.36,9,1.12,3.13,2,5.82.74,9-.44,1.14-.15,2.58-.06,3.88.26,3.84.64,7.67.88,11.51.3,4.58.3,9.19.83,13.74.27,2.3-1.62,6.9,4.28,5.1,3.75,4.7,9,2.21,13.56,2.53a36.63,36.63,0,0,0,6-.57,38.5,38.5,0,0,1,6.12-.52c2.85.2,5.66,1,8.51,1.24,6.2.46,12.44.46,18.62,1.09,8.1.82,16.19,2.74,23.86-1.62a4.82,4.82,0,0,1,2.77-.82c5.34.79,6-.06,4.71-5.31a50.31,50.31,0,0,1-1.31-11.19c0-6,.53-11.91.83-18.74M414.16,637.84c2-2.6,4.87-3.17,7.34-1.43,3.86,2.73,7.49,3.65,11.67,1.13.91-.55,1.83-1.07,2.74-1.6a14,14,0,0,0-3-1.65c-.64-.18-1.48.46-2.26.61-5,.92-10.85-1.16-10.89-4.3a30,30,0,0,1,1.84-10.07c.48-1.34,2.74-2.59,4.39-2.91,2.46-.48,5.11,0,7.68-.09q16.8-.28,33.6-.64c5-.11,7.38.87,6.83,6.62a15.51,15.51,0,0,0,1.27,6.41c.88,2.42.3,3.41-2.37,3.54-9.42.47-18.84,1-28.24,1.61-1.17.08-2.26,1.16-3.39,1.77a26,26,0,0,0,3.32,3.31,3.45,3.45,0,0,0,2.65,0c5.9-2.14,11.87-1.88,17.93-.74a6.4,6.4,0,0,0,2.16-.19c2.81-.47,5.66-1.57,8.4-1.32,4.83.44,9.57,3.24,14.39,0a1.64,1.64,0,0,1,1.32,0c4.51,2.12,5.25-.61,5.07-3.83-.47-8.46-1.17-16.91-1.77-25.37l-.06-.85c-.59-7.3-1.89-14.65-1.47-21.89.23-4.06-.92-4.59-4.19-4.6-8.71,0-17.43-.21-26.14-.15-16.94.11-33.89.25-50.82.68-1.48,0-4.11,2.23-4.13,3.47-.25,11.74-.19,23.5.11,35.25.13,5.31,1,10.61,1.53,15.9a32.09,32.09,0,0,0,.73,3.45,39,39,0,0,0,3.78-2.15m66.61-435.52c5.77-.25,11.53-.52,17.3-.75,6.82-.27,13.64-.5,20.46-.74q21.13-.74,42.29-1.46c8.63-.27,17.26-.48,25.9-.7,9.23-.24,18.48-.32,27.71-.75,4.9-.23,9.77-1,14.64-1.64.61-.08,1.12-.82,1.68-1.26-.43-.41-.8-1.08-1.3-1.19-2-.43-4-1.1-5.92-.94-7.94.65-15.85,1.71-23.8,2.34-8.69.7-17.41,1.18-26.13,1.59-12.43.58-24.86,1.23-37.3,1.47-18.6.36-37.2.45-55.8.53-11.23.05-22.46-.23-33.68-.16-7.48.05-14.95.58-22.43.66-8.56.09-17.13-.19-25.68-.11-10.9.11-21.8.47-32.7.62q-25.18.34-50.36.54c-5.79,0-11.58-.09-17.37-.05-.65,0-1.29.61-1.94,1a6.14,6.14,0,0,0,1.77.71c7.78.38,15.56,1,23.34,1,13.31,0,26.63-.33,39.94-.55,11.66-.2,23.31-.58,35-.58,6.67,0,13.34.77,20,.88,4.1.06,8.21-.7,12.31-.69,17.07,0,34.13.18,52.1.29M450,551.58c4.42,0,8.84-.05,13.26.13,2.74.11,3.62-.9,3.55-3.49q-.22-8.67,0-17.34c.07-2.53-.67-3.61-3.49-3.6-9.79.05-19.58-.17-29.37,0-1.46,0-4.07,1.31-4.16,2.2-.64,6.64-.88,13.32-.94,20,0,.66,2,1.9,3.07,1.94,5.72.24,11.45.17,18.08.21m15.86-67.27c-.3-4.8-.45-9.62-1-14.39-.12-1-1.93-2.44-3-2.47-8.8-.26-17.61-.28-26.41-.21-1,0-2.91,1-3,1.62-.52,6.38-1,12.78-.94,19.17,0,3.77,2,5.75,6.69,5.37,6.14-.51,12.37,0,18.55,0,8-.07,9.1-1.08,9.1-9.05m97-10.67c.3,4.7.74,9.39.87,14.09.15,5.61,1.2,6.64,6.94,6.4,7.3-.29,14.6-.63,21.9-.67,2.88,0,4-.77,3.86-3.64-.42-6.66-.51-13.34-1.1-20-.08-.92-2.23-2.36-3.47-2.41-6.81-.28-13.66,0-20.46-.32-4.69-.26-8.31.16-8.54,6.54M430.93,500.17c-.15,6.44-.41,12.89-.33,19.33,0,.81,1.65,2.1,2.71,2.31a32.46,32.46,0,0,0,6,.15c7.43,0,14.87.21,22.3.08,2.69,0,4.41-1.38,4.26-4.53-.24-5.34-.19-10.69,0-16,.09-2.75-.78-3.8-3.79-3.76-8.58.1-17.18-.17-25.76,0-1.66,0-3.29,1.32-5.39,2.47M571.4,551.5a36.11,36.11,0,0,0,6,.85c5.92-.1,11.84-.3,17.72-.83A4.25,4.25,0,0,0,598,548.6c.31-4.9.16-9.83.13-14.75s-3.3-7.42-8.19-6.59a46.82,46.82,0,0,1-6.87.81c-5.13.09-10.26.08-15.39-.1-3.69-.13-5,1.39-4.93,4.84.16,5.21,0,10.42,0,15.63,0,3.83,1.37,4.74,5.24,3.66a18.78,18.78,0,0,1,3.36-.6M433.65,577.56l26.69.17c4.4,0,6.3-1.74,6.37-6,.06-4.05-.16-8.11.07-12.15.18-3-1.25-3.59-4-3.58-9.5,0-19-.11-28.5-.13-4.63,0-6.52,1.86-6.54,6.3,0,3.38,0,6.75,0,10.13s1.69,4.94,5.9,5.29m131-78.7c-.6.77-1.71,1.52-1.73,2.31-.15,5.48-.52,11,.11,16.44.31,2.7,2.4,5.18,6.45,3.73,1.71-.61,3.83-.31,5.76-.22,5.45.26,10.92,1.06,16.33.82,4.29-.19,6.83-.84,6.59-6.53-.16-3.64-.62-7.27-.86-10.91-.15-2.14-.12-4.29-.17-6.44-1.94.18-3.88.51-5.83.52-8.73,0-17.46-.09-26.65.28m158.6-5.92c.61-.77,1.75-1.55,1.73-2.31-.16-7-.39-13.94-1-20.89-.08-.9-2.33-2.3-3.61-2.36q-10.4-.4-20.8-.18c-3.22.08-5.27,2-5.32,5.24-.07,5.35-.12,10.71,0,16.05.08,2.94,1.17,4.9,5,4.8,7.83-.19,15.67,0,24-.35M564.15,19.44c6.72.92,13.42,2,20.17,2.64A18.77,18.77,0,0,0,593.26,21c1.78-.8-.32-7.74-2.44-9.17-11.88-8-24.81-9.08-38.39-5.51-11.15,2.94-12.63,4.94-12.37,15,.09,3.18,1.61,2.58,3.62,2,3-.8,6-1.59,9-2.18,3.49-.68,7-1.15,11.47-1.7M715.5,527.23c-5.42,0-10.85-.23-16.25,0-1.13,0-3,1.72-3.09,2.72a141.74,141.74,0,0,0,0,17.73c.12,1.62,2.36,4.39,3.67,4.42,7.84.19,15.7-.32,23.55-.48,2.91,0,4.48-1.2,4.3-4-.22-3.49-.8-7-.84-10.47-.12-9.82,0-9.82-11.37-9.89M562.79,571.87c0,4,2,6.19,4.94,5.69a35.75,35.75,0,0,1,5.5-.8q10.63-.07,21.27.12c3.17.06,4.62-1.21,4.56-4.28-.08-4.34-.18-8.69,0-13,.14-2.93-1.1-3.67-3.94-3.63-7.28.1-14.58-.12-21.86-.05a30.07,30.07,0,0,0-8.62,1c-1.27.4-2.59,2.64-2.65,4.1-.15,3.33.46,6.7.76,10.92M725.92,513c0-2.75.49-5.6-.14-8.21s.3-6.82-4.4-7c-7.24-.25-14.48-.24-21.72-.15-2.92,0-4.9,1.25-4.59,4.64.45,4.94.85,9.89.87,14.83,0,3.47,1.33,4.95,5,4.87,5.48-.11,11,0,16.44.08,9.25.17,8.91-1.13,8.55-9.08m-36.25,31.93c0-4,.09-7.89,0-11.84-.18-6.47-.23-6.55-6.87-6.86-4.26-.2-8.53-.09-12.79-.12-6.32,0-6.43,0-6.57,5.79s.08,11.46-.09,17.18c-.06,2.06.77,2.26,2.55,2.25,6,0,12,0,18,.08,5.49,0,5.93.88,5.74-6.48M728.19,403c-5.75-.33-11.49-.78-17.23-.82-.75,0-2.07,2.09-2.15,3.27-.28,4-.2,8.08-.08,12.12.11,3.33,2.45,5.1,5.42,6.19,2.48.9,5,1.79,7.54,2.45a7.48,7.48,0,0,0,4.1.17c5.58-2,11.1-4.2,16.52-6.57.66-.29,1.12-2.28.78-3.17C741,411.13,739,405.51,731.6,404.5c-.89-.13-1.67-1-3.41-1.5m.45,156.91c-1.52-1.31-3-3.68-4.56-3.77-7.8-.44-15.63-.37-23.45-.27-2.8,0-5,1.09-4.67,4.55.26,3.06.06,6.15,0,9.23,0,5.21.91,6.13,6.22,6.17,7.22,0,14.44,0,21.66.17,3.37.07,4.94-1.23,4.76-4.5a89.36,89.36,0,0,1,0-11.58M475.33,424a19.17,19.17,0,0,0,4.19-1.76c2.5-1.84,5.27-3.64,7-6.07,1.11-1.6-6.75-10.22-9.27-10.38-7.27-.44-14.55-1-21.8-.82-1.72.05-4.33,2.73-4.76,4.59-.62,2.72.76,5.82.56,8.71-.29,4.08.6,6.38,5.51,5.68a4.9,4.9,0,0,1,3.62.88c4.72,4.6,9.23,3.64,13.82,0,.21-.17.47-.3,1.16-.87m189,53.82c0,3.76-.37,7.56.19,11.25.22,1.46,2.39,3.68,3.83,3.81,5.38.48,10.83.16,16.25.32,2.57.08,3.43-.88,3.33-3.26-.13-3.46,0-6.93,0-10.4,0-12.44,0-12.46-13.23-12.51-9.11,0-10.59-2.33-10.34,10.79m-.9,40.85c1,1,2,2.87,3.05,2.92,6,.33,12,.19,18.06.27,2.94,0,4.3-1.28,4.28-4.09,0-4.91-.16-9.83,0-14.73.15-3.94-2.42-5.27-5.66-5.47a156.91,156.91,0,0,0-15.79-.06c-1.06,0-2.85,1.53-2.94,2.47-.56,5.92-.73,11.88-1,18.69m68-47.37c.3,6.51.49,13,1,19.53.08.95,1.85,2.48,2.9,2.54,5,.3,9.92.08,14.88.25,3.75.13,5-1.6,4.77-4.93-.36-5.41-.62-10.82-.92-16.23-.18-3.22-1.87-4.94-5.3-5-3.76,0-7.53.16-11.27-.14-3-.24-4.65,1-6.09,3.94M602.67,480c0,2.31.16,4.65,0,6.94-.19,2-2.46,4.3.93,5.63a20.17,20.17,0,0,0,6.48,1.72,47.3,47.3,0,0,0,10.91-.85c1.66-.35,4.14-2.26,4.18-3.53.17-5.66-.35-11.34-.72-17-.32-4.89-2.07-6.44-7.12-6.26-4,.15-7.9.53-11.86.76-3.55.2-3.87,2.53-3.64,5.13.2,2.2.58,4.4.89,7.47m-67.07,46.5c-.6.91-1.71,1.81-1.73,2.74A177.44,177.44,0,0,0,534,548c.18,2.21,2,4.54,5.49,4.27,3.89-.3,7.86.27,11.71-.15,1.56-.16,4-1.8,4.18-3a79.94,79.94,0,0,0,.89-16.48c-.2-2.7.46-7.42-5.76-6.58-4.71.64-9.61.07-14.88.47M584.54,41.74c3.56-3,2.29-7.29,1.39-10.43-.85-3-4.59-4.85-8.51-4.84-8,0-16-.48-23.82,2.32-2.32.83-5.06.19-5.33,3.61-.19,2.48-.64,5-.72,7.43,0,.39,1.31,1.11,2.08,1.2,3.48.43,7,.87,10.48.95,8,.18,16,.14,24.43-.24m106,520.53c-.37-2.89-.72-6-4.67-6.2a174.09,174.09,0,0,0-19.24-.28,4.6,4.6,0,0,0-4.27,5.35,71.47,71.47,0,0,1,0,11c-.13,2.58.8,3.57,3.54,3.54,6.61-.09,13.22.06,19.84.07,3.45,0,5.3-2.51,4.71-5.72a25.93,25.93,0,0,1,.05-7.71M493,471.45c-.72-1.31-1.28-3.62-2.18-3.76a110.67,110.67,0,0,0-14.1-1.06c-2.91-.05-4.87,1.22-4.61,4.62.46,5.95.41,11.94,1.07,17.87.25,2.15,1.06,5,5,3.65,1.44-.49,3.42.21,5.09.63,5.42,1.38,9.21-.86,9.67-6,.2-2.21,0-4.44,0-6.67v-9.27m63.44,13.45c0-4.33-.66-8.8.21-13,.67-3.19-.83-3.61-2.94-4-3-.5-6.06-.69-9.11-1-6.13-.56-8,1.15-8.14,7-.08,3.06-.73,6.11-.82,9.17s-.56,6.26.54,8.88c1.3,3.12,4.75.74,7.23,1.08.53.07,1,.52,1.52.67,7.85,2.13,13.07-1.56,11.51-8.87m-62.54,46.54c-.33-3.17-2.07-4.84-5.48-4.83-3.77,0-7.59-.36-11.3.1-1.48.18-3.79,2.06-3.88,3.31a167.51,167.51,0,0,0-.13,17.36c.11,3.4,2.28,5.33,5.88,5.22,3.81-.11,7.6-.68,11.41-.69,2.74,0,3.63-.93,3.55-3.53-.16-5.35,0-10.71,0-16.94M621.7,521c2.48-1.31,4.5-2.63,2.93-6-.67-1.45-.3-3.41-.18-5.12.2-3.06.86-6.13.7-9.17,0-1-2.09-2.59-3.23-2.61-5-.05-10,.47-15,.61-3,.08-4.29,1.34-4.27,4.15.05,4.53,0,9.06,0,13.6.05,3.91,2.33,5.83,6.27,5.73A99.94,99.94,0,0,0,621.7,521M473.07,507.83c0,3.32.14,6.65-.05,10-.14,2.55.7,3.66,3.5,3.58,4.36-.12,8.73,0,13.09,0,2.93.05,4.35-1.22,4.31-4,0-3.61,0-7.22,0-10.83,0-7.19,0-7.19-7.29-8.62-.26-.06-.49-.25-.76-.33-9.64-2.73-12.79-.64-12.79,8.51v1.73m136.39,18.71c-5.41,0-6,.44-5.85,5.53.1,3.49.87,7,.81,10.46-.16,10.31.3,9.19,9.86,9.25a5.53,5.53,0,0,0,1.35,0c3.47-.91,7.41-.74,7.15-6.29-.23-5.06.87-10.2,1.69-15.26.57-3.5-.83-5-4.56-4.52-3.16.43-6.36.57-10.45.84m-73.4-27.43c-3.24,6.48-.77,13.35-1.22,20,0,.51,1.86,1.52,2.95,1.66,3.78.49,7.59.67,11.39,1,6.46.58,7.91-1.13,6.4-7.38a16.92,16.92,0,0,1,0-3.9c0-3.38.13-6.77-.1-10.13a3.08,3.08,0,0,0-2.21-1.95,166.21,166.21,0,0,0-17.17.66M752.2,549.63c.31-6.51.54-13,.94-19.53.16-2.57-.73-3.65-3.5-3.56-3.9.13-7.82.08-11.73-.07-3.38-.12-4.93,1.24-4.75,4.51.34,6.09.4,12.19,1.1,18.24.14,1.21,2.52,3,4,3.13a50.35,50.35,0,0,0,10-.62,6.6,6.6,0,0,0,4-2.1M595.42,420.83l13.18-9.09c2.89-2,.44-3.52-.92-4.14-9-4.1-18.34-6.83-28.39-4.58-.87.19-1.88,2-1.89,3.07a30.07,30.07,0,0,0,.88,7.85c.63,2.43,2.42,6.83,2.84,6.74,4.61-1,8.63,4,13.2,1.18a10.78,10.78,0,0,0,1.1-1m84.73,4.46c-.94-.62-1.87-1.25-2.82-1.85-6.2-3.92-7.07-3.63-9.43,3-.72,2-1.79,3.91-2.44,5.94-2.68,8.39-.92,10.91,8.16,12,.42.05.85.14,1.28.18,3.21.26,6.42.64,9.63.73,4.59.12,3.85-3.87,5-6.36.17-.36.1-.89.34-1.15,2.66-2.84,1-5-1.31-6.89a52.55,52.55,0,0,0-8.44-5.59m70.69,73.48c-4.06,0-8.15.18-12.19-.15s-6.12.7-5.55,5.09a72.5,72.5,0,0,1,.07,9.09c0,2.5-.63,5.2.14,7.47,1.37,4,4.55,1.06,7,1.06a8.37,8.37,0,0,1,2,.5c5.42,1.51,11.7-3,11.7-8.34a86.5,86.5,0,0,0-.1-9.53c-.21-1.78-1.41-3.46-3.08-5.19M570.49,423.71c1.06-1.43,2.94-2.81,3-4.29a58.43,58.43,0,0,0-.79-11.34c-.62-4.2-3.84-5.57-8.26-3.83-2.44,1-4.81,2.33-7.35,2.76a19.59,19.59,0,0,0-11.32,6.29c-1.75,1.85-1.59,2.95.74,4.21a118.27,118.27,0,0,1,12.29,7.2c4.8,3.38,7,3.49,11.68-1M406,485.67c.31,1.47.32,3.07,1,4.38s2,3.62,3.13,3.71c3.45.26,7-.35,10.46-.61,2.83-.22,3.64-1.86,3.58-4.35-.11-3.76,0-7.52,0-11.28-.05-3.19,1-8.23-.57-9.16-2.9-1.71-7.33-1-11.13-1.34-.45,0-1.06-.19-1.33,0-1.14.89-2.94,1.77-3.14,2.9-.91,4.9-1.34,9.89-1.95,15.73m285.94-78.56c-5.88.52-11.6,1-16.11,5.58-2.31,2.35-1.13,3.45.61,4.61,5.25,3.49,10.56,6.9,16,10.15a4.62,4.62,0,0,0,3.58,0,29.69,29.69,0,0,0,6.5-3.63,5,5,0,0,0,1.58-3.6c0-3.2-.69-6.4-.78-9.6-.14-5.28-1-6.17-6.24-5.19-1.46.27-2.81,1.09-5.12,1.66M493,556.64c-4.77-.17-9.53-.3-14.29-.54-3.4-.17-4.89,1.24-4.77,4.52.12,3.52.17,7,0,10.56-.33,6.64-.41,6.63,6.58,6.68,2.71,0,5.51.41,8.11-.09,1.61-.3,4.07-1.85,4.18-3a123.49,123.49,0,0,0,.2-18.1m45.76-.14c-3.71.35-4.85,2.24-4.16,5.73.35,1.75-.16,3.64-.29,5.47a69.15,69.15,0,0,0-.41,7.73c0,.66,1.48,1.8,2.31,1.84,5,.2,9.94.28,14.9.06a3.64,3.64,0,0,0,2.5-2.48c.55-4.32.7-8.69,1-13.05.06-.82-.11-1.94.38-2.42,3.45-3.39.19-2.74-1.79-2.77-4.51-.07-9-.07-14.46-.11M446.33,413.34c.61-6.16.61-6.16-6.65-5.26a4.49,4.49,0,0,0-.9,0c-5.29,1.69-10.77,3-15.81,5.21-4.86,2.15-4.59,6.28,0,8.83,1.49.83,2.71,2.1,4.13,3.05,2.81,1.88,5.5,4.86,9.24,3.64,8.06-2.64,10.44-6.39,10-15.48m94.26,31c3.24.52,6.52.86,9.71,1.61,4.39,1,7.4-.44,8.88-4.61.49-1.38,1.5-2.65,1.71-4.05s.26-3.49-.57-4.12c-5.15-3.92-10.52-7.58-16-11.08-.47-.31-2.84.95-3.19,1.88a64.48,64.48,0,0,0-2.77,10.12c-.65,3.4-2.73,7.17,2.22,10.25m66.16-3.92c3.51-.56,7-1.09,10.54-1.68,2.77-.46,5.46-1.42,4.28-4.77-1.72-4.94-4-9.69-6-14.57-1.14-2.93-2.72-3.94-5.68-2.05-2.22,1.41-4.64,2.54-6.84,4-6.15,4-6.09,4-3.51,10.49.35.88,0,2,.4,2.88,1.07,2.69,1.45,6.13,6.76,5.73M406.91,512.62a45.27,45.27,0,0,0,.1,6.49c.13.95,1.32,2.52,2,2.52,3.49,0,7-.43,10.48-.66,3.1-.2,3.67-2.06,3.75-4.64.13-4.56.44-9.12.89-13.66.37-3.64-.38-5.88-5-5.24a45.94,45.94,0,0,1-6.32,0c-5.12,0-7.06,1.88-6.84,6.85.11,2.49.57,5,.87,8.32m10.42,13.54-4.52,0c-5.4,0-5.9.43-5.9,5.56,0,4.83.28,9.67-.1,14.47-.24,3.11,1.05,4.74,3.89,4.8,3.54.07,7.32,0,10.53-1.12,1.09-.39.71-4.36,1.1-6.68.85-5.11-1.86-10.57,1.49-15.47a3,3,0,0,0-1.52-1.43,35.27,35.27,0,0,0-5-.1m52.57-91.8c.15,2.42.47,4.86.41,7.28-.09,3.41,2.51,4.15,4.87,3.94a125.45,125.45,0,0,0,15.16-2.51c1.06-.23,2.56-2,2.5-2.94-.31-5-1.08-10-1.63-15-.28-2.49-1.18-3.9-3.88-2.18-5.69,3.61-11.32,7.28-17.43,11.37M614,556.12l-3.63,0c-5.4,0-5.89.43-5.89,5.58,0,3.33-.22,6.68.1,10,.15,1.5,1.28,4.09,2.13,4.16,4.33.36,8.88.69,13-.22,3.47-.76,3-4.47,2.86-7.36-.06-1.6,0-3.19,0-4.78,0-7.28,0-7.28-8.61-7.34m124.16-112.2c2.28-.28,4.59-.45,6.85-.85,5.23-.92,6.76-2.65,6.28-7a55,55,0,0,0-.93-6.15c-.93-4.06-4.34-5.48-8.25-3.76-2,.88-4.21,1.38-6.32,2.07-7.8,2.55-8.48,3.82-6.26,11.68,1.54,5.43,2.37,5.86,8.63,4m-115.55,3.16c.3-3.45-.94-4.86-4.65-3.46a16.07,16.07,0,0,1-3.45.37c-3.4.45-7.24.15-10.11,1.59-4.43,2.22-2.58,6.43-1.78,10.15.76,3.51,2.32,5.32,6.42,4.82,3.11-.38,6.35.2,9.47-.12,1.72-.17,4.67-1.2,4.73-2,.27-3.44-.34-7-.63-11.32M735,573.86c1.64.73,3.23,1.9,4.94,2.11,3,.36,6,0,9,.19,2.56.13,3.4-.88,3.33-3.25-.13-4.31.16-8.65-.18-12.95-.08-1.05-1.87-2.7-3-2.83-3.46-.39-7,0-10.5-.24-2.72-.15-3.71.8-3.6,3.42.17,4.22,0,8.45,0,13.55m305-59.31,4.52,0c4.94,0,5.9-.93,5.9-5.56,0-3.76.48-7.6-.2-11.25-.34-1.82-2.55-3.66-4.38-4.78-1.19-.72-3.24-.06-4.89-.19-3.59-.28-5.22,1.16-5.06,4.69.15,3.32,1,7-.19,9.89-1.69,4.17.55,5.53,4.3,7.17M731.81,198.74c12.88.08,25.75.27,38.63.21,8.47,0,16.95-.33,25.41-.76,1.48-.08,2.87-1.39,4.31-2.13a40.79,40.79,0,0,0-4.91-1.19c-.73-.1-1.54.73-2.33.75-8.78.29-17.55.72-26.33.67-8.47,0-17-.77-25.42-.93-11.31-.22-22.63-.23-33.94-.22-2.53,0-5.06.45-7.59.7,1.93,3.54,5.28,1.48,8,1.8,4.83.57,9.7.77,14.55,1,2.92.14,5.84.06,9.66.09M452.68,622c-8.05.53-16.12.91-24.13,1.73-1.29.13-2.53,2.11-3.4,3.46-.27.42.7,2.28,1.24,2.34a103.94,103.94,0,0,0,13.62,1c3.85-.08,7.64-1.25,11.49-1.47,4.36-.26,8.75-.06,13.13,0,3.3.07,3.81-2.34,3.71-4.45,0-.88-2.17-2.29-3.45-2.4-3.74-.35-7.53-.17-12.21-.2m659.77,15.58c-5,0-10.06-.13-15.09-.08-15,.15-30,.45-45,.54-10.76.06-21.53-.12-32.3-.19-9.7-.06-19.41-.18-29.12-.11-1,0-2,1.07-3,1.65a10.86,10.86,0,0,0,3,.84c6.72-.17,13.44-.6,20.16-.66q14.1-.12,28.22.17c17.23.32,34.45.9,51.68,1.12,7.42.1,14.85-.34,22.26-.72a52.07,52.07,0,0,0,6.93-1.28c-2.24-.43-4.47-.85-7.62-1.28M409.63,576.1c4.32,2.7,10.85,1.54,11.54-2.45a106,106,0,0,0,1-15.55,3.29,3.29,0,0,0-2.27-2.25,36.35,36.35,0,0,0-9,.84,4.81,4.81,0,0,0-2.93,3.39,82.82,82.82,0,0,0-.08,11.79c.05,1.27.84,2.53,1.75,4.23m16.31-132.9c1.18-2.28,2.44-4.52,3.46-6.86a2.43,2.43,0,0,0-.42-2.28c-3.5-3-7.23-5.74-10.7-8.77-2.33-2-4-.43-4.61,1.07a71.31,71.31,0,0,0-3.94,12.3c-.62,2.87,2.6,6,5.26,5.77a104.53,104.53,0,0,0,10.95-1.23m631.23,53.21c-.45,5-1.2,10-1.13,15,0,1.1,2.89,2.89,4.61,3.09,2.81.33,5.76-.26,8.61-.73.74-.12,1.88-1.21,1.86-1.83-.13-4.5-.46-9-.85-13.5-.08-.88-.67-2.47-1.07-2.48a80.12,80.12,0,0,0-12,.43m-54.38,16.16c6.12,0,7.48-1.21,7.73-6.91a11.78,11.78,0,0,1,.62-2.77c2.27-7.7-1.57-12.38-9.31-11.13-2.26.36-4.33,1.15-4.1,4.28a99.82,99.82,0,0,1,0,12.71c-.16,3.07,1,4.26,5,3.82m24.92-.27c.91-4.54,2.6-9.08,2.53-13.61-.09-5.94-.68-5.94-7.13-6-.75,0-1.76-.31-2.21,0-1.46,1.15-3.59,2.37-3.88,3.86-.6,3.06-.18,6.32-.18,9.49,0,6.84,3.51,9.07,10.87,6.2m-276-52.64c.45-2.71,1-5.41,1.35-8.13.35-2.42-.88-3.54-3.35-3.17A146.15,146.15,0,0,0,734.21,451a5.94,5.94,0,0,0-3.49,4.53c0,1.6,2.07,4.56,3.34,4.62,5.57.28,11.19-.28,17.69-.52M675.62,449.6a3.38,3.38,0,0,1-.45,0c-2.74-.3-5.67-1.34-8.17-.74-3.52.83-1.75,4.29-2.33,6.67-.88,3.62,1.06,4.32,3.83,4.43,4.22.17,8.44,0,12.67.14,3,.07,5.7,0,5.81-3.95.16-5.1-.55-6.09-5.48-6.48-1.65-.14-3.31,0-5.88-.06m401,60.41c.72,5,4.74,4.18,8,3.88s4.12-2.8,3.76-5.8a77.89,77.89,0,0,1-.86-10.43c.07-4.07-2.64-4.54-5.68-4.52-2.86,0-5.5.51-5.31,4.34s0,7.77,0,12.53m27.19-1.56c.52-3.4,1.51-6.81,1.38-10.19a6.64,6.64,0,0,0-3.39-4.87c-3.6-1.49-8.45.24-8.86,2.43a2.76,2.76,0,0,0,0,.86c.6,4.67,1,9.37,1.92,14a4.54,4.54,0,0,0,2.83,3,16.22,16.22,0,0,0,6.3-.39c.24,0-.1-2.58-.18-4.82M472.16,452.19c-1.83,4.65-.16,7.38,4.55,7.42,4.07,0,8.15.2,12.2,0a4.55,4.55,0,0,0,3.12-2c3.48-6,2.59-7.46-4.34-7.5a84.66,84.66,0,0,0-8.58,0,27.87,27.87,0,0,0-6.95,2.06M855.07,635.92a55.51,55.51,0,0,0-7.32-.86c-6.37.09-12.74.41-19.1.74-.73,0-1.42.78-2.13,1.19.82.46,1.64,1.3,2.47,1.31,7.9.15,15.81.28,23.7.18,8.08-.09,16.16-.56,24.24-.62,3.49,0,7,.71,10.49.85q6.87.25,13.74,0c1.11,0,2.2-.92,3.3-1.42a15.42,15.42,0,0,0-2.84-1.92,6.89,6.89,0,0,0-2.69-.08c-6.57.24-13.14.62-19.71.71-7.75.09-15.5-.07-24.15-.13M422.77,460.13c3-1.95,2.7-4.87,1.9-7.58a4.65,4.65,0,0,0-3.1-2.73,41.71,41.71,0,0,0-9.41-.12c-3.33.34-4.35,2.95-4.27,5.72.07,2.59.85,4.91,4.54,4.69,3.13-.19,6.29,0,10.34,0m122.35-.08c2.41,0,4.85.21,7.24,0,4.11-.33,2.54-4.1,3.7-6.22.09-.17-1.09-1.32-1.82-1.5-2.89-.72-5.83-1.71-8.74-1.71-2.68,0-6.28-1.87-8,1.57a7.92,7.92,0,0,0-.52,5.9c1.3,3.06,4.65,1.68,8.11,1.95M255.11,200c-5.46.26-10.93.45-16.37.83-.78.06-1.48,1-2.21,1.54.8.33,1.61,1,2.4.95,5.76-.16,11.52-.51,17.28-.69,9.38-.28,18.77-.45,28.15-.74a11.87,11.87,0,0,0,2.92-.87c-1-.57-2.09-1.63-3.12-1.62-9.38.09-18.76.38-29.05.6M836.94,488a49.5,49.5,0,0,0-6.33,0,18,18,0,0,0-4.09,1.54c1.43.62,2.84,1.7,4.31,1.79,4.42.26,8.86.25,13.29.14s8.8-.64,13.21-.7c2.29,0,4.58.63,6.88.81a6.14,6.14,0,0,0,2.19-.7c-.68-.62-1.33-1.73-2-1.78-7.12-.46-14.24-.76-21.36-1.08-1.71-.07-3.43,0-6,0m-253.3-42.94c1.9-4.13,3.92-8.21,5.61-12.42.39-1,.07-3-.61-3.4a12.41,12.41,0,0,0-5.76-1.52c-.67,0-1.76,2.12-1.88,3.35-.43,4.26-.53,8.56-.71,12.84,0,1.07.05,2.14.08,3.21a38.62,38.62,0,0,0,3.27-2.06m84.73-249.37c1.56,0,3.13-.08,4.68.05,2.6.22,5.18.7,7.78.81.5,0,1.06-1.13,1.59-1.74a5.83,5.83,0,0,0-1.73-.75c-4.54-.37-9.1-.93-13.65-.93-6.51,0-13,.39-19.53.73a11,11,0,0,0-3.09,1.18c1.12.46,2.23,1.29,3.36,1.32,5.78.17,11.56.17,17.35.14.78,0,1.56-.53,3.24-.81M940.71,549.11c.3,4.52.57,9,.94,13.55a12.17,12.17,0,0,0,.76,2.55c.34-.92,1-1.85,1-2.75q-.79-17.69-1.8-35.36c0-.64-.64-1.26-1-1.89a6.17,6.17,0,0,0-.76,2.09c.24,7,.57,14,.87,21.81M706.44,446.32c.15-5,.34-10,.39-15a2,2,0,0,0-1.33-1.46c-3.06-.14-7,6.08-5.37,8.58a40.4,40.4,0,0,0,6.31,7.87m-264.64-7.8c1.06,3.05,2.06,6.11,3.21,9.13.21.55,1,.89,1.56,1.33.38-.59,1-1.15,1.08-1.77.39-4,.78-8.11.83-12.17,0-.76-1.57-1.55-2.41-2.32a27.6,27.6,0,0,0-4.27,5.8m275.06-4.74a10.47,10.47,0,0,0-.92-1.36c-1.05-1.15-2.15-2.26-3.23-3.38-.73,1.3-2,2.55-2.09,3.89a105.54,105.54,0,0,0,0,11.39c0,.21,1.77.63,1.81.55a70.12,70.12,0,0,0,4.45-11.09M224.29,203.27c1.66,0,3.33.12,5,0,.63-.05,1.21-.68,1.82-1.05-.62-.5-1.24-1.42-1.87-1.44-7.89-.24-15.76-.24-23.31,2.4-.69.24-1.34.6-2,.91.71.27,1.45.83,2.14.77,5.79-.46,11.57-1,18.25-1.57M575.93,443.74q.68-7.49,1.36-15c-.66,0-1.52-.32-2,0-4.73,3.11-4.84,10.38.6,15M452.22,439a27.57,27.57,0,0,0-.85,4,8.6,8.6,0,0,0,.68,2.57,7,7,0,0,0,2-1.36,51.68,51.68,0,0,0,4.08-6.54,4.67,4.67,0,0,0,.25-3.75,3.61,3.61,0,0,0-3.27-1.21c-.95.4-1.47,1.95-1.94,3.09-.36.87-.34,1.88-.95,3.25m113.29,7.69c0,.72-.31,1.8,0,2.09a29.88,29.88,0,0,0,5.4,3.5c.54.26,2.5-.82,2.45-1.05a22.4,22.4,0,0,0-1.52-4.44,30.44,30.44,0,0,0-1.87-3.58,20.3,20.3,0,0,0-1.7-2.15,12.57,12.57,0,0,0-1.85,2.39c-.39.84-.36,1.87-1,3.24m322.18,42.51c-2.29,0-4.59-.06-6.89,0a21.76,21.76,0,0,0-2.54.32c.47.8.76,1.89,1.47,2.33a6.1,6.1,0,0,0,3.24.78c4.22-.16,8.44-.47,12.66-.76a7.64,7.64,0,0,0,1.58-.45c-.33-.59-.6-1.65-1-1.7-2.53-.28-5.09-.35-8.54-.5M457.66,453c2.13-2.53,5.9-4,5.7-8,0-.69,0-1.39,0-2.08-.82,0-2-.22-2.39.19a61.73,61.73,0,0,0-6,7.87c-.93,1.56.14,2.53,2.63,2.06m133.68-6.53c1.28-2.09,2.65-4.13,3.77-6.3a2.12,2.12,0,0,0-.8-2,2.31,2.31,0,0,0-2.08.55,44.38,44.38,0,0,0-4.77,6.32c-.85,1.47-1,3.33-1.38,5,1.39-.86,2.78-1.71,4.16-2.58a11.44,11.44,0,0,0,1.1-1m131.86-2.18c-.22-1.31-.43-2.61-.65-3.92-1.11.54-2.57.81-3.24,1.67a37.91,37.91,0,0,0-4.07,6.48c-.32.62.39,1.72.63,2.59a5.34,5.34,0,0,0,1.86-.8c1.74-1.81,3.36-3.72,5.47-6m-22.65,2.46a14.4,14.4,0,0,0-1.32-2.93,9,9,0,0,0-2.18-1.57,14.19,14.19,0,0,0-1,2.61c-.58,3.56.91,6.17,4.29,7.71a2.52,2.52,0,0,0,2.09.07,2.06,2.06,0,0,0,.29-2,32.39,32.39,0,0,1-2.16-3.91m-260.11,1.79a21.5,21.5,0,0,0-.94-3.08,20.07,20.07,0,0,0-1.68-2.59c-.69.77-1.8,1.46-2,2.32-.3,1.6-.56,3.53.11,4.9s2.49,2.17,3.8,3.23c.23-1.31.46-2.61.68-4.78M936.18,330.89c0-.43.15-.94,0-1.29-.48-.91-1.1-1.76-1.67-2.63-.34.91-1,1.84-1,2.74.17,4.24.52,8.46.88,12.68,0,.39.56.78.93,1.07.1.08.71-.18.71-.3.08-3.8.1-7.6.14-12.27M594.06,459.5a57.1,57.1,0,0,0,1.46-5.83c.09-.59-.77-1.32-1.2-2l-5.25,4.53a19.56,19.56,0,0,0,5,3.29m123.71-.5a9.68,9.68,0,0,0,2.55,1.28c4,.65,2.18-3.1,3.48-4.56a2.32,2.32,0,0,0-.52-2.25c-2.48-1.21-6.18,2-5.51,5.53M953.85,193.22c-2.13.28-4.27.52-6.39.85a15,15,0,0,0-2.22.7c.82.63,1.58,1.67,2.47,1.81a26.09,26.09,0,0,0,5.86.07,26.38,26.38,0,0,0,4.07-1,13.6,13.6,0,0,0-3.79-2.48M564.6,459.75a40.19,40.19,0,0,0,6.07.36c.75-.06,1.38-1.35,2.06-2.07-2.22-.74-4.41-1.88-6.69-2.08-2.08-.18-3,1.28-1.44,3.79M914.88,193l-3.06,1.18c.92.47,1.81,1.3,2.75,1.36,3,.2,6,.14,8.94.09a6,6,0,0,0,1.79-.63c-.56-.47-1.09-1.26-1.7-1.34-2.59-.34-5.21-.46-8.72-.66m-79.3,2.53v1.71c4.11-.14,8.22-.26,12.32-.46.15,0,.44-1,.34-1.05a3,3,0,0,0-1.49-.54,89.37,89.37,0,0,0-11.17.34M457.66,459.92a33.43,33.43,0,0,0,6.41-2c.61-.31.75-2.7.16-3.53s-6.74,3.44-6.57,5.52M934.37,196.14c2.18.16,4.37.38,6.55.43.53,0,1.07-.53,1.6-.82-.31-.45-.57-1.22-1-1.3-2.8-.53-5.62-1-8.45-1.27-.43,0-1,1.19-1.46,1.84a12.21,12.21,0,0,1,2.72,1.12M433.65,460.2a8.37,8.37,0,0,0,2.24,0c1.73-.5,3.41-1.16,5.1-1.76-.19-.41-.34-1.16-.57-1.18a25.56,25.56,0,0,0-6-.21c-1,.14-1.72,1.5-2.58,2.32a2.52,2.52,0,0,0,1.85.85M224.75,561.86c-.31,1.76-.71,3.51-.86,5.28,0,.68.48,1.4.74,2.11.64-.65,1.77-1.25,1.84-2a49.32,49.32,0,0,0,0-7.09c0-.47-.68-.92-1-1.38a15.58,15.58,0,0,0-.71,3M450.86,455.1c-2.09-2.19-3.67-.5-4.48,1-.6,1.09,0,2.78.06,4.2a23.07,23.07,0,0,0,3.9-2.19c.63-.53.67-1.69.52-3m127.34,5.6a16.25,16.25,0,0,0,4.3-.5c.77-.3,1.11-1.6,1.65-2.44a27.32,27.32,0,0,0-5.4-.8c-.38,0-.67,2.15-.55,3.74M861.41,194.36c-2.55.11-5.1.21-7.64.4a11.85,11.85,0,0,0-.06,1.63c2.18-.1,4.37-.11,6.54-.35.58-.07,1.08-.81,1.16-1.68M700.55,459.76l-3.49-3.94c-.35.89-1.26,2.19-.94,2.58.91,1.12,1.3,4.13,4.43,1.36M638.47,196.39l1.17-2.34c-1.69,0-3.39-.08-5.07,0-.34,0-.62.74-.93,1.14a37.52,37.52,0,0,0,4.83,1.18m71.59,263.86,3-1.48-3.11-1.85c-.65,1-3.25,1.63.14,3.33m-482.59,1.66.69,2.17c.37-.58,1-1.14,1.07-1.76a19.24,19.24,0,0,0,0-3.87,4.19,4.19,0,0,0-.66-1.32c-.37.44-1,.84-1.08,1.33a20.08,20.08,0,0,0,0,3.45m401-2.18c-.1.48-.19,1-.29,1.46,1.64-.51,3.29-1,4.89-1.56.24-.09.26-.72.38-1.1-1.27.11-2.55.2-3.82.35-.25,0-.48.27-1.16.85M196.65,204.39c-1.38-.42-2.76-.84-4.16-1.21,0,0-.24.69-.37,1.06,1.07.19,2.13.4,3.2.57.29.05.59,0,1.33-.42m609.48-6.91,3.17-.54-.38-1.11a5.87,5.87,0,0,0-2.79,1.65m160,6.69,1.93,1.31.79-1.16a5.46,5.46,0,0,0-2.72-.15M939.8,523l1.82-.44-.69-1.73A4.83,4.83,0,0,0,939.8,523Z"/><path d="M267.34,634.72c-1.39-2.93-3-5.35-4-8-.36-.92.66-2.35,1.06-3.53.69-2,1.92-4.06,2-6.12.23-8,.21-15.93.06-23.89-.12-6.45-.94-12.91-.79-19.34.3-13.44,1.36-26.87,1.49-40.31.08-8.14-1-16.29-1.54-24.44a3,3,0,0,1,0-.43c.3-5.72.16-11.5,1-17.14.83-5.33,3.08-6.22,8.72-5.47,5.91.79,11.86,1.51,17.81,1.83,6.23.33,12.48.25,18.72.16,8.94-.13,17.87-.43,26.8-.68a6.77,6.77,0,0,0,2.09-.38c7.48-2.71,13.56,1.28,13.66,8.84.25,18.47.83,36.93.83,55.4s-.49,36.92-.87,55.38c-.16,7.8-.6,15.6-.86,23.4a7.92,7.92,0,0,0,.32,3.34c1.22,2.8-.57,2.78-2.53,2.77L326.19,636,323,636c-14.2-.09-28.39-.23-42.58-.24-2.59,0-5.18.74-7.77.7a13,13,0,0,1-5.33-1.69M348,491.37c-1.31-.44-2.64-1.28-3.94-1.26-5.14.09-10.27.43-15.4.71-4.53.24-9.06.47-13.58.82a7,7,0,0,0-2.23,1.06,7.87,7.87,0,0,0,2,.61c6.2.08,12.41.1,18.62.14,4.51,0,9,.11,13.52,0,.49,0,.94-1.07,1-2.09m-76.13.38c-.88,2.8-.59,3,4,2.15a8.08,8.08,0,0,0,2.39-1.41c-.76-.67-1.45-1.8-2.28-1.91-1.15-.15-2.4.46-4.07,1.17m31.72,1.94,2.72-.86-.66-1.3A4.94,4.94,0,0,0,303.59,493.69Z"/><path d="M597.23,311.74c-9.72-.06-19,0-28.25-.22-6.93-.15-13.85-.62-20.78-1-5.9-.3-7.8,1.39-8.09,7-.15,2.94-1,6-4.68,5.8-3.18-.17-4.51-2.55-4.41-5.76.24-7,.52-6.31-6.41-6.35-16.16-.1-32.32-.27-48.48-.27a130.32,130.32,0,0,0-14.11.85c-.94.1-2.15,1.54-2.44,2.58-.42,1.48-.11,3.16-.1,4.75,0,3-1.75,4-4.58,3.8s-3.81-1.88-3.56-4.37a11.9,11.9,0,0,1,.62-1.92c1.12-3.76.21-5-3.8-5-3.62,0-7.25.06-10.87-.11s-5,.84-3.66,4.48a6,6,0,0,1-.56,4.61c-.81,1.31-2.73,3-3.92,2.83a6.16,6.16,0,0,1-4-3.37c-.68-1.68.24-3.91-.29-5.7a4.68,4.68,0,0,0-3.14-2.79c-5.06-.59-5.8-1.2-5.79-6.3q0-17,0-34.05c0-5.7-.06-11.4,0-17.1.07-4.78,2-6.93,7.19-6.91,8.18,0,16.36.66,24.54.89,1.83.06,3.67-.69,5.52-.74,4-.1,7.95,0,11.93,0,50.48.05,100.95.16,151.42.05,9,0,17.92-1.19,26.9-1.41,5.2-.13,10.42.69,15.64.83,2.28.06,4.58-.74,6.87-.73,22.2.08,44.41.25,66.61.39,3.37,0,6.76.2,10.12,0,4.52-.23,5,2.6,4.92,5.73-.23,9.64-.8,19.27-.82,28.91,0,8.33.69,16.67.71,25,0,1.58-1.28,4-2.65,4.58-3.65,1.6-4.46,4.26-4.45,7.56,0,2.12.11,4.05-3.12,3.89-3-.14-4.43-1.54-4.12-4.3.8-7.07-1.7-7.47-7.59-7.09-2.3.15-4.89,0-6.76,1-1.17.62-1.27,3.11-1.78,4.77s-.68,3.75-1.61,5.29c-.45.74-3,1.31-3.41.9-1.4-1.46-3-3.32-3.21-5.14-.55-6.06-.32-6-6.82-6.15-4.71-.14-9.42-.89-14.12-.87-9.75,0-19.49.47-29.24.57-2.59,0-5.19-.85-7.78-.81-7.18.08-14.35.46-21.53.65-3.07.09-6.15-.16-9.21,0s-5.25,1.2-4.87,4.89a10.07,10.07,0,0,1-1,5.64c-.78,1.4-3,3.26-4.1,3-1.52-.33-2.65-2.48-3.9-3.88-.15-.16,0-.56,0-.85-.08-8.08-.08-8.08-9.06-8.14m-129.15-60c-13.77.2-27.54.52-41.31.53-4.11,0-5.46,1.45-5.42,5.3.15,14.34.06,28.68.06,43,0,5.14.49,5.64,5.9,5.64,35.57-.05,71.15-.2,106.72-.12,10.85,0,21.7.81,32.56,1,5.81.08,11.63-.56,17.45-.68,13.77-.27,27.54-.69,41.31-.56,23.64.22,47.28,1,70.92,1.21,13.92.13,27.85-.41,41.77-.48,3,0,3.33-1.41,3.32-3.73-.07-12.17,0-24.34,0-36.51,0-3.38-.67-6.93.17-10.1,1-3.84-.68-4.45-3.77-4.48-6.39-.07-12.79,0-19.18-.16-7.33-.21-14.66-.89-22-.92-8.74,0-17.47.53-26.21.61-23,.21-46,.31-69,.44-2.46,0-4.94-.11-7.4,0-5.82.2-11.64.72-17.45.7-27.55-.09-55.09-.32-82.63-.5Z"/><path d="M1132.16,510.15a92.94,92.94,0,0,0-.05-26c-.64-4.88.69-10,.67-14.95,0-6.24-.42-12.5-.88-18.73s-1.4-12.54-1.62-18.82a6.25,6.25,0,0,1,2.89-4.69c1-.54,3.48.57,4.7,1.6.74.62.84,2.74.33,3.77-3.25,6.52-1.32,13.36-1.48,20.05,0,1.35.57,2.71.63,4.07.35,7.74.84,15.48.87,23.22,0,6.15-.55,12.29-.84,18.44a6.67,6.67,0,0,0,0,1.73c1.49,6.64,3.22,13.25,4.37,19.95.3,1.74-.66,4.52-2,5.46-1.71,1.16-4.55,1.41-6.76,1.1-3-.42-3.13-3.07-2.8-5.41C1130.65,517.39,1131.33,513.88,1132.16,510.15Z"/><path d="M967.9,504.52c.3,3.92.79,7.39.85,10.87.06,3.24-2.67,4.59-5.81,3s-5.89-3.14-4.23-7.56c1.18-3.16.83-6.84,1.91-10,.55-1.65,2.71-3.85,4.21-3.89,3-.08,3.3,2.59,3.08,5C967.85,502.64,967.9,503.37,967.9,504.52Z"/><path d="M720.48,633.31c-8.47-.34-16.48-.78-24.5-1a46.39,46.39,0,0,0-8.21.78c-7.63,1.21-11.74-3.69-9.52-11.34.42-1.45,1-3.3.44-4.51-2.59-5.5,1.71-3.36,3.61-2.92,9,2.08,18,1.6,27.1.77a128.45,128.45,0,0,1,20.94.13c4,.29,5.42,3,4.17,7a12.3,12.3,0,0,0-.27,7.17c1.08,3.18-.79,3.73-2.91,3.88-3.44.25-6.93,0-10.85,0m-4.07-6.11a55.27,55.27,0,0,0,7.31.83c1.45,0,3.67-.59,4.13-1.54a11.33,11.33,0,0,0,.62-5.89c-.06-.49-2.25-1.13-3.44-1.11-7.12.13-14.24.41-21.36.68-5.61.22-11.22.43-16.82.78-3.07.19-3.61,2.52-3.46,4.79.17,2.49,1.7,2.3,3.63,1.34.83-.41,2.07-.06,3.13-.05Z"/><path d="M427.75,268.05c.31-1.62.59-2.8.91-4,.68-2.45,1.63-4.16,5-3.91,5.15.38,10.36-.09,15.49.35,1.42.13,2.66,2.22,4,3.41a18.52,18.52,0,0,1-4,1.58,32.55,32.55,0,0,1-5.41,0c-7.93-.11-6.69-.55-6.92,6.69-.09,2.74.76,3.78,3.77,3.83,2.31.05,4.65,1,6.91,1.73.8.27,2,1.2,2,1.8-.14,5.66-.41,11.32-.91,17-.09,1-1.42,1.94-2.17,2.91-1.06-1-2.63-1.85-3.05-3.06a21.46,21.46,0,0,1-1-6.54c-.13-5.57-2.13-7.24-7.69-6.12-4.55.92-6.82-.68-6.85-4.86C427.73,275.42,427.75,272,427.75,268.05Z"/><path d="M716.86,298.61c-4.28-.17-5.14-2.84-5.39-5.72-.23-2.59,0-5.21-.07-7.81-.3-7,1.72-7.81,8.28-9.13a9.42,9.42,0,0,0,4.72-2.5c1.8-1.89.57-4.08-2.13-4.36a80.08,80.08,0,0,1-8.65-1c-1.17-.26-3.09-2-2.92-2.43.52-1.35,1.68-3,3-3.4,1.72-.52,3.8.07,5.72.13s4,.4,5.79,0c5.3-1.21,8.11,1.4,7.15,6.54a52.52,52.52,0,0,0-.89,10.47c.06,3.17-1.29,3.82-4.26,3.72-7.43-.25-6.68-.76-6.7,6.4C720.47,292.85,721.34,296.54,716.86,298.61Z"/><path d="M438.86,293.11c2.71,5.41,2.21,6.23-3.55,6.28-2.15,0-4.56.54-6.37-.22-1.39-.59-2-2.84-3-4.35,1.4-.81,2.73-2.17,4.19-2.3A42.59,42.59,0,0,1,438.86,293.11Z"/><path d="M722.52,293.65c3.28-2.65,9.77-2.71,12.05.14.82,1,.07,4.72-.06,4.72a67,67,0,0,1-11.24-.45C722.76,298,722.61,295.33,722.52,293.65Z"/><text class="cls-1" transform="translate(473.01 285.34)"><tspan class="cls-2">R</tspan><tspan class="cls-3" x="12.25" y="0">OS</tspan><tspan class="cls-4" x="35.34" y="0">S</tspan><tspan class="cls-5" x="43.65" y="0">L</tspan><tspan x="52.81" y="0">YN </tspan><tspan class="cls-6" x="81.75" y="0">F</tspan><tspan x="90.87" y="0">A</tspan><tspan class="cls-7" x="102.03" y="0">R</tspan><tspan class="cls-8" x="114.36" y="0">M</tspan><tspan x="130.38" y="0">S </tspan><tspan class="cls-9" x="143.22" y="0">S</tspan><tspan class="cls-10" x="151.96" y="0">C</tspan><tspan class="cls-11" x="163.99" y="0">H</tspan><tspan class="cls-12" x="178.54" y="0">O</tspan><tspan class="cls-13" x="192.96" y="0">O</tspan><tspan x="206.98" y="0">L</tspan></text><text class="cls-1" transform="translate(8.64 666.34)"><tspan class="cls-2">R</tspan><tspan class="cls-3" x="12.25" y="0">OS</tspan><tspan class="cls-4" x="35.34" y="0">S</tspan><tspan class="cls-5" x="43.65" y="0">L</tspan><tspan x="52.81" y="0">YN </tspan><tspan class="cls-6" x="81.75" y="0">F</tspan><tspan x="90.87" y="0">A</tspan><tspan class="cls-7" x="102.03" y="0">R</tspan><tspan class="cls-8" x="114.36" y="0">M</tspan><tspan x="130.38" y="0">S </tspan><tspan class="cls-9" x="143.22" y="0">S</tspan><tspan class="cls-10" x="151.96" y="0">C</tspan><tspan class="cls-11" x="163.99" y="0">H</tspan><tspan class="cls-12" x="178.54" y="0">O</tspan><tspan class="cls-13" x="192.96" y="0">O</tspan><tspan x="206.98" y="0">L</tspan></text><text class="cls-1" transform="translate(1000.75 666.34)"><tspan class="cls-14">A</tspan><tspan class="cls-15" x="11.35" y="0">M</tspan><tspan x="26.8" y="0">Y </tspan><tspan class="cls-16" x="41.59" y="0">T</tspan><tspan class="cls-17" x="52.65" y="0">R</tspan><tspan class="cls-18" x="64.74" y="0">E</tspan><tspan class="cls-19" x="74.58" y="0">B</tspan><tspan x="85.8" y="0">I</tspan><tspan class="cls-20" x="93.13" y="0">L</tspan><tspan x="103.09" y="0">C</tspan><tspan class="cls-12" x="115.39" y="0">O</tspan><tspan class="cls-10" x="129.81" y="0">C</tspan><tspan x="141.84" y="0">K</tspan></text></g></g></svg>